<?xml version="1.0" encoding="utf-8"?>
<!-- Generator: Adobe Illustrator 21.1.0, SVG Export Plug-In . SVG Version: 6.00 Build 0)  -->
<svg version="1.1" id="Calque_1" xmlns="http://www.w3.org/2000/svg" xmlns:xlink="http://www.w3.org/1999/xlink" x="0px" y="0px"
	 viewBox="0 0 1280 720" style="enable-background:new 0 0 1280 720;" xml:space="preserve">
<style type="text/css">
	.st0{fill:#96C8EA;}
	.st1{fill:#FFFFFF;}
</style>
<rect class="st0" width="1280" height="720"/>
<g>
	<g>
		<path class="st1" d="M650,114c-141.2,0-256,114.8-256,256c0,141.2,114.8,256,256,256c141.2,0,256-114.8,256-256
			C906,228.8,791.2,114,650,114z M650,607.7c-131.1,0-237.7-106.6-237.7-237.7c0-131.1,106.6-237.7,237.7-237.7
			c131.1,0,237.7,106.6,237.7,237.7C887.7,501.1,781.1,607.7,650,607.7z"/>
	</g>
</g>
<g>
	<g>
		<path class="st1" d="M540.7,285c-18.7,0-33.9,15.2-33.9,33.9c0,18.7,15.2,33.9,33.9,33.9c18.7,0,33.9-15.2,33.9-33.9
			C574.6,300.2,559.4,285,540.7,285z"/>
	</g>
</g>
<g>
	<g>
		<path class="st1" d="M759.3,285c-18.7,0-33.9,15.2-33.9,33.9c0,18.7,15.2,33.9,33.9,33.9c18.7,0,33.9-15.2,33.9-33.9
			S777.9,285,759.3,285z"/>
	</g>
</g>
<g>
	<g>
		<path class="st1" d="M770.8,378.6H521.9c-5.1,0-9.2,4.1-9.2,9.1c0,14.7,2.4,29.1,7,42.9c8.9,26.4,25.6,49,48.3,65.4
			c22.9,16.6,49.9,25.3,78.2,25.3c28.3,0,55.4-8.8,78.2-25.3c22.7-16.4,39.4-39,48.3-65.4c4.7-13.8,7-28.2,7-42.9
			C779.9,382.7,775.8,378.6,770.8,378.6z M646.3,503c-21.3,0-41.8-5.7-59.8-16.7c7.6-8.2,18.5-13.1,29.9-13.1
			c8.9,0,17.3,2.8,24.4,8.1c3.2,2.4,7.7,2.4,10.9,0c7.1-5.3,15.5-8.1,24.4-8.1c11.4,0,22.3,4.9,29.9,13.1
			C688.1,497.3,667.7,503,646.3,503z M721,475.6c-11.1-12.9-27.5-20.6-44.8-20.6c-10.6,0-20.8,2.8-29.8,8.1
			c-9-5.3-19.2-8.1-29.9-8.1c-17.3,0-33.7,7.7-44.8,20.6C559,464.8,549,451.7,542,436.8h208.7C743.7,451.7,733.6,464.8,721,475.6z
			 M757.5,418.5H535.2c-2-7.1-3.2-14.3-3.8-21.6h229.9C760.7,404.2,759.4,411.4,757.5,418.5z"/>
	</g>
</g>
<g>
	<g>
		<g>
			<circle class="st1" cx="544.5" cy="314.2" r="9.1"/>
			<circle class="st1" cx="762.8" cy="314.2" r="9.1"/>
		</g>
	</g>
</g>
</svg>
