<?xml version="1.0" encoding="utf-8"?>
<!-- Generator: Adobe Illustrator 21.1.0, SVG Export Plug-In . SVG Version: 6.00 Build 0)  -->
<svg version="1.1" id="Calque_2" xmlns="http://www.w3.org/2000/svg" xmlns:xlink="http://www.w3.org/1999/xlink" x="0px" y="0px"
	 viewBox="0 0 355.4 362.6" style="enable-background:new 0 0 355.4 362.6;" xml:space="preserve">
<style type="text/css">
	.st0{opacity:0.3;}
</style>
<g class="st0">
	<g>
		<g>
			<g>
				<g>
					<path d="M301.6,110.1c-15.8,0-28.7,12.9-28.7,28.7s12.9,28.7,28.7,28.7c15.8,0,28.7-12.9,28.7-28.7S317.4,110.1,301.6,110.1z
						 M301.6,165.5c-14.7,0-26.6-11.9-26.6-26.6s12-26.6,26.6-26.6c14.7,0,26.6,12,26.6,26.6S316.3,165.5,301.6,165.5z"/>
				</g>
			</g>
			<g>
				<g>
					<path d="M288.7,131.1c-3.4,0-6.1,2.7-6.1,6.1c0,0.6,0.5,1,1,1c0.6,0,1-0.5,1-1c0-2.2,1.8-4,4-4c2.2,0,4,1.8,4,4
						c0,0.6,0.5,1,1,1c0.6,0,1-0.5,1-1C294.8,133.8,292.1,131.1,288.7,131.1z"/>
				</g>
			</g>
			<g>
				<g>
					<path d="M314.4,131.1c-3.4,0-6.1,2.7-6.1,6.1c0,0.6,0.5,1,1,1c0.6,0,1-0.5,1-1c0-2.2,1.8-4,4-4c2.2,0,4,1.8,4,4
						c0,0.6,0.5,1,1,1s1-0.5,1-1C320.5,133.8,317.8,131.1,314.4,131.1z"/>
				</g>
			</g>
			<g>
				<g>
					<path d="M320.8,147.9l-2.6-2.8c0.3-0.4,0.5-0.8,0.8-1.2c0.1-0.2,0.2-0.4,0.2-0.6c0-0.6-0.5-1-1-1c-0.4,0-0.7,0.2-0.9,0.5
						c-0.4,0.6-0.8,1.2-1.2,1.8c-1.8,2.4-4.1,4.2-6.8,5.5c-4,1.8-8.5,2.2-12.8,0.9c-4.4-1.3-8.2-4.2-10.6-8.2
						c-0.3-0.5-0.9-0.6-1.4-0.4c-0.5,0.3-0.6,0.9-0.4,1.4c2.7,4.4,6.8,7.7,11.7,9.1c1.9,0.5,3.8,0.8,5.7,0.8c2.7,0,5.3-0.5,7.8-1.5
						l3,3.3c1.1,1.2,2.6,1.8,4.2,1.8c1.4,0,2.7-0.5,3.8-1.5C322.7,153.8,322.8,150.2,320.8,147.9z M319,154.4
						c-1.5,1.3-3.7,1.2-5.1-0.2l-2.6-2.9c0.8-0.4,1.6-0.9,2.3-1.5l2.4,2.6c0.2,0.2,0.5,0.3,0.7,0.3c0.3,0,0.5-0.1,0.7-0.3
						c0.4-0.4,0.4-1,0-1.4l-2.3-2.5c0.6-0.5,1.1-1.1,1.7-1.7l2.3,2.6C320.6,150.8,320.5,153.1,319,154.4z"/>
				</g>
			</g>
		</g>
		<g>
			<g>
				<g>
					<path d="M136.3,110.1c-15.8,0-28.7,12.9-28.7,28.7c0,15.8,12.9,28.7,28.7,28.7c15.8,0,28.7-12.9,28.7-28.7
						C165,123,152.1,110.1,136.3,110.1z M136.3,165.5c-14.7,0-26.6-11.9-26.6-26.6c0-14.7,12-26.6,26.6-26.6
						c14.7,0,26.6,12,26.6,26.6C163,153.5,151,165.5,136.3,165.5z"/>
				</g>
			</g>
			<g>
				<g>
					<path d="M149.2,138.6c-0.4-0.4-1-0.4-1.5,0c-6.3,6.3-16.5,6.3-22.8,0c-0.4-0.4-1-0.4-1.5,0c-0.4,0.4-0.4,1,0,1.5
						c3.5,3.5,8.2,5.3,12.8,5.3c4.7,0,9.3-1.8,12.8-5.3C149.6,139.7,149.6,139,149.2,138.6z"/>
				</g>
			</g>
			<g>
				<g>
					<path d="M141.9,147.9c-0.2-0.5-0.7-0.9-1.3-0.7c-2.9,0.8-5.9,0.8-8.7,0c-0.5-0.2-1.1,0.2-1.3,0.7s0.2,1.1,0.7,1.3
						c1.6,0.5,3.3,0.7,4.9,0.7s3.3-0.2,4.9-0.7C141.8,149,142.1,148.4,141.9,147.9z"/>
				</g>
			</g>
			<g>
				<g>
					<path d="M123.3,124.8c-3.9,0-7,3.2-7,7c0,0.6,0.5,1,1,1c0.6,0,1-0.5,1-1c0-2.8,2.2-5,5-5s5,2.2,5,5c0,0.6,0.5,1,1,1
						c0.6,0,1-0.5,1-1C130.3,127.9,127.1,124.8,123.3,124.8z"/>
				</g>
			</g>
			<g>
				<g>
					<path d="M149.4,124.8c-3.9,0-7,3.2-7,7c0,0.6,0.5,1,1,1s1-0.5,1-1c0-2.8,2.2-5,5-5s5,2.2,5,5c0,0.6,0.5,1,1,1s1-0.5,1-1
						C156.4,127.9,153.3,124.8,149.4,124.8z"/>
				</g>
			</g>
		</g>
	</g>
	<g>
		<g>
			<g>
				<g>
					<path d="M218.9,25.1c-15.8,0-28.7,12.9-28.7,28.7s12.9,28.7,28.7,28.7c15.8,0,28.7-12.9,28.7-28.7
						C247.6,38,234.8,25.1,218.9,25.1z M218.9,80.5c-14.7,0-26.6-12-26.6-26.6s12-26.6,26.6-26.6c14.7,0,26.6,12,26.6,26.6
						S233.6,80.5,218.9,80.5z"/>
				</g>
			</g>
			<g>
				<g>
					<path d="M213.4,46.2c-1.3-2.2-3.6-3.5-6.1-3.5s-4.8,1.3-6.1,3.5c-0.3,0.5-0.1,1.1,0.4,1.4c0.5,0.3,1.1,0.1,1.4-0.4
						c0.9-1.6,2.6-2.5,4.4-2.5c1.8,0,3.4,0.9,4.4,2.5c0.2,0.3,0.5,0.5,0.9,0.5c0.2,0,0.4,0,0.5-0.1
						C213.5,47.3,213.7,46.6,213.4,46.2z"/>
				</g>
			</g>
			<g>
				<g>
					<path d="M236.7,46.2c-1.3-2.2-3.6-3.5-6.1-3.5c-2.5,0-4.8,1.3-6.1,3.5c-0.3,0.5-0.1,1.1,0.4,1.4c0.5,0.3,1.1,0.1,1.4-0.4
						c0.9-1.6,2.6-2.5,4.4-2.5c1.8,0,3.4,0.9,4.4,2.5c0.2,0.3,0.5,0.5,0.9,0.5c0.2,0,0.4,0,0.5-0.1C236.9,47.3,237,46.6,236.7,46.2z
						"/>
				</g>
			</g>
			<g>
				<g>
					<path d="M227.7,56c-0.6,0-1,0.5-1,1c0,1.8-1.5,3.4-3.4,3.4c-1.8,0-3.4-1.5-3.4-3.4c0-0.6-0.5-1-1-1c-0.6,0-1,0.5-1,1
						c0,1.8-1.5,3.4-3.4,3.4c-1.8,0-3.4-1.5-3.4-3.4c0-0.6-0.5-1-1-1s-1,0.5-1,1c0,3,2.4,5.4,5.4,5.4c1.8,0,3.4-0.9,4.4-2.2
						c1,1.4,2.6,2.2,4.4,2.2c3,0,5.4-2.4,5.4-5.4C228.7,56.5,228.3,56,227.7,56z"/>
				</g>
			</g>
		</g>
		<g>
			<g>
				<g>
					<path d="M39.7,42.2c-3.5,0-6.4,2.9-6.4,6.4c0,0.6,0.5,1,1,1s1-0.5,1-1c0-2.4,2-4.4,4.4-4.4c2.4,0,4.4,2,4.4,4.4
						c0,0.6,0.5,1,1,1s1-0.5,1-1C46,45.1,43.2,42.2,39.7,42.2z"/>
				</g>
			</g>
			<g>
				<g>
					<path d="M67,42.2c-3.5,0-6.4,2.9-6.4,6.4c0,0.6,0.5,1,1,1c0.6,0,1-0.5,1-1c0-2.4,2-4.4,4.4-4.4c2.4,0,4.4,2,4.4,4.4
						c0,0.6,0.5,1,1,1c0.6,0,1-0.5,1-1C73.3,45.1,70.5,42.2,67,42.2z"/>
				</g>
			</g>
			<g>
				<g>
					<path d="M67,55.8H39.6c-0.6,0-1,0.5-1,1c0,1.6,0.3,3.2,0.8,4.7c1,2.9,2.8,5.4,5.3,7.2c2.5,1.8,5.5,2.8,8.6,2.8s6.1-1,8.6-2.8
						c2.5-1.8,4.3-4.3,5.3-7.2c0.5-1.5,0.8-3.1,0.8-4.7C68,56.2,67.6,55.8,67,55.8z M53.3,69.5c-2.3,0-4.6-0.6-6.6-1.8
						c0.8-0.9,2-1.4,3.3-1.4c1,0,1.9,0.3,2.7,0.9c0.4,0.3,0.8,0.3,1.2,0c0.8-0.6,1.7-0.9,2.7-0.9c1.3,0,2.5,0.5,3.3,1.4
						C57.9,68.8,55.7,69.5,53.3,69.5z M61.5,66.4c-1.2-1.4-3-2.3-4.9-2.3c-1.2,0-2.3,0.3-3.3,0.9c-1-0.6-2.1-0.9-3.3-0.9
						c-1.9,0-3.7,0.9-4.9,2.3c-1.4-1.2-2.5-2.6-3.3-4.3h23C64,63.8,62.9,65.3,61.5,66.4z M66,57.8c-0.1,0.8-0.2,1.6-0.4,2.4H41.1
						c-0.2-0.8-0.4-1.6-0.4-2.4H66L66,57.8z"/>
				</g>
			</g>
			<g>
				<g>
					<path d="M80.1,40.4c1.4-1.4,2.2-3.3,2.2-5.2s-0.8-3.8-2.2-5.2l-4.5-4.5c-0.2-0.2-0.4-0.3-0.7-0.3s-0.5,0.1-0.7,0.3L69.6,30
						c-0.3,0.3-0.5,0.6-0.7,0.9c-4.6-3.1-10-4.7-15.5-4.7c-15.5,0-28.2,12.6-28.2,28.2s12.6,28.2,28.2,28.2
						c15.5,0,28.2-12.6,28.2-28.2c0-4.4-1-8.8-3-12.7C79.1,41.3,79.6,40.9,80.1,40.4z M71,31.4l3.8-3.8l3.8,3.8c1,1,1.6,2.4,1.6,3.8
						S79.7,38,78.7,39c-2.1,2.1-5.5,2.1-7.6,0c-1-1-1.6-2.4-1.6-3.8S70,32.4,71,31.4z M79.5,54.3c0,14.4-11.7,26.2-26.2,26.2
						c-14.4,0-26.2-11.7-26.2-26.2s11.7-26.2,26.2-26.2c5.2,0,10.3,1.5,14.6,4.4c-0.3,0.8-0.5,1.7-0.5,2.6c0,2,0.8,3.8,2.2,5.2
						c1.4,1.4,3.3,2.2,5.2,2.2c0.6,0,1.2-0.1,1.8-0.2C78.5,46.1,79.5,50.2,79.5,54.3z"/>
				</g>
			</g>
		</g>
	</g>
	<g>
		<g>
			<g>
				<g>
					<path d="M218.9,195.1c-15.8,0-28.7,12.9-28.7,28.7s12.9,28.7,28.7,28.7s28.7-12.9,28.7-28.7S234.8,195.1,218.9,195.1z
						 M218.9,250.5c-14.7,0-26.6-11.9-26.6-26.6c0-14.7,12-26.6,26.6-26.6c14.7,0,26.6,12,26.6,26.6S233.6,250.5,218.9,250.5z"/>
				</g>
			</g>
			<g>
				<g>
					<path d="M231.9,228.4h-26.1c-0.6,0-1,0.5-1,1c0,0.6,0.5,1,1,1h26.1c0.6,0,1-0.5,1-1C232.9,228.8,232.4,228.4,231.9,228.4z"/>
				</g>
			</g>
			<g>
				<g>
					<path d="M223.6,232.2H214c-0.6,0-1,0.5-1,1s0.5,1,1,1h9.6c0.6,0,1-0.5,1-1S224.2,232.2,223.6,232.2z"/>
				</g>
			</g>
			<g>
				<g>
					<path d="M206.7,216.8c-2.1,0-3.8,1.7-3.8,3.8c0,2.1,1.7,3.8,3.8,3.8c2.1,0,3.8-1.7,3.8-3.8
						C210.5,218.5,208.8,216.8,206.7,216.8z"/>
				</g>
			</g>
			<g>
				<g>
					<path d="M231.2,216.8c-2.1,0-3.8,1.7-3.8,3.8c0,2.1,1.7,3.8,3.8,3.8c2.1,0,3.8-1.7,3.8-3.8C235,218.5,233.3,216.8,231.2,216.8z
						"/>
				</g>
			</g>
			<g>
				<g>
					<g>
						<circle cx="207.7" cy="219.8" r="1"/>
						<circle cx="232.2" cy="219.8" r="1"/>
					</g>
				</g>
			</g>
		</g>
		<g>
			<g>
				<g>
					<path d="M39.9,209.3c-3.6,0-6.5,2.9-6.5,6.5c0,0.6,0.5,1,1,1s1-0.5,1-1c0-2.5,2-4.4,4.4-4.4c2.5,0,4.4,2,4.4,4.4
						c0,0.6,0.5,1,1,1s1-0.5,1-1C46.4,212.2,43.5,209.3,39.9,209.3z"/>
				</g>
			</g>
			<g>
				<g>
					<path d="M67.7,209.3c-3.6,0-6.5,2.9-6.5,6.5c0,0.6,0.5,1,1,1c0.6,0,1-0.5,1-1c0-2.5,2-4.4,4.4-4.4c2.5,0,4.4,2,4.4,4.4
						c0,0.6,0.5,1,1,1c0.6,0,1-0.5,1-1C74.2,212.2,71.3,209.3,67.7,209.3z"/>
				</g>
			</g>
			<g>
				<g>
					<path d="M67.4,218.3c-0.4-0.2-0.8-0.1-1.1,0.2c-3.3,3.3-7.7,5.1-12.4,5.1s-9.1-1.8-12.4-5.1c-0.3-0.3-0.7-0.4-1.1-0.2
						c-0.4,0.2-0.6,0.5-0.6,0.9v6.4c0,4.3,1.9,8.3,5.2,11c2.5,2,5.7,3.2,8.9,3.2c3.2,0,6.4-1.1,8.9-3.2c0.4-0.3,0.8-0.6,1.1-1
						c2.7-2.7,4.2-6.2,4.2-10v-6.4C68,218.8,67.7,218.5,67.4,218.3z M53.8,237.7c-2.5,0-4.9-0.8-6.9-2.1c0.9-1.1,2.2-1.7,3.5-1.7
						c1,0,1.9,0.3,2.7,0.9c0.4,0.3,0.9,0.3,1.2,0c0.8-0.6,1.7-0.9,2.7-0.9c1.4,0,2.7,0.6,3.5,1.7C58.7,237,56.3,237.7,53.8,237.7z
						 M62.4,234.2C62.3,234.2,62.3,234.2,62.4,234.2c-1.3-1.4-3.2-2.3-5.2-2.3c-1.2,0-2.3,0.3-3.3,0.9c-1-0.6-2.2-0.9-3.3-0.9
						c-2,0-3.9,0.9-5.1,2.4c-2.2-2.1-3.4-4.9-3.6-7.9c3.5,2.8,7.8,4.2,12.1,4.2c4.3,0,8.6-1.4,12.1-4.2
						C65.7,229.3,64.5,232.1,62.4,234.2z M65.9,223.6c-6.8,6.5-17.5,6.5-24.2,0v-2.1c3.4,2.7,7.7,4.2,12.1,4.2
						c4.5,0,8.7-1.5,12.1-4.2L65.9,223.6L65.9,223.6z"/>
				</g>
			</g>
			<g>
				<g>
					<path d="M53.8,195.1c-15.8,0-28.7,12.9-28.7,28.7s12.9,28.7,28.7,28.7c15.8,0,28.7-12.9,28.7-28.7
						C82.5,208,69.6,195.1,53.8,195.1z M53.8,250.5c-14.7,0-26.6-12-26.6-26.6c0-14.7,12-26.6,26.6-26.6c14.7,0,26.6,12,26.6,26.6
						C80.5,238.5,68.5,250.5,53.8,250.5z"/>
				</g>
			</g>
		</g>
	</g>
	<g>
		<g>
			<g>
				<g>
					<path d="M136.3,280.1c-15.8,0-28.7,12.9-28.7,28.7c0,15.8,12.9,28.7,28.7,28.7c15.8,0,28.7-12.9,28.7-28.7
						C165,293,152.1,280.1,136.3,280.1z M136.3,335.5c-14.7,0-26.6-12-26.6-26.6c0-14.7,12-26.6,26.6-26.6c14.7,0,26.6,12,26.6,26.6
						C163,323.5,151,335.5,136.3,335.5z"/>
				</g>
			</g>
			<g>
				<g>
					<path d="M154,294.8c-1-1-2.3-1.6-3.8-1.6c-1.1,0-2.1,0.3-3,0.9c-0.9-0.6-1.9-0.9-3-0.9c-1.4,0-2.7,0.6-3.8,1.6
						c-1,1-1.6,2.3-1.6,3.8c0,1.4,0.6,2.7,1.6,3.8l6.1,6.1c0.2,0.2,0.5,0.3,0.7,0.3c0.3,0,0.5-0.1,0.7-0.3l6.1-6.1
						C156.1,300.3,156.1,296.9,154,294.8z M152.6,300.9l-5.3,5.3l-5.3-5.3c-0.6-0.6-1-1.4-1-2.3s0.3-1.7,1-2.3c0.6-0.6,1.4-1,2.3-1
						c0.9,0,1.7,0.3,2.3,1c0.2,0.2,0.5,0.3,0.7,0.3c0.3,0,0.5-0.1,0.7-0.3c0.6-0.6,1.4-1,2.3-1c0.9,0,1.7,0.3,2.3,1
						C153.8,297.6,153.8,299.6,152.6,300.9z"/>
				</g>
			</g>
			<g>
				<g>
					<path d="M132.2,294.8c-1-1-2.3-1.6-3.8-1.6c-1.1,0-2.1,0.3-3,0.9c-0.9-0.6-1.9-0.9-3-0.9c-1.4,0-2.7,0.6-3.8,1.6
						c-2.1,2.1-2.1,5.4,0,7.5l6.1,6.1c0.2,0.2,0.5,0.3,0.7,0.3c0.3,0,0.5-0.1,0.7-0.3l6.1-6.1C134.2,300.3,134.2,296.9,132.2,294.8z
						 M130.7,300.9l-5.3,5.3l-5.3-5.3c-1.3-1.3-1.3-3.3,0-4.6c0.6-0.6,1.4-1,2.3-1c0.9,0,1.7,0.3,2.3,1c0.2,0.2,0.5,0.3,0.7,0.3
						c0.3,0,0.5-0.1,0.7-0.3c0.6-0.6,1.4-1,2.3-1c0.9,0,1.7,0.3,2.3,1C132,297.6,132,299.6,130.7,300.9z"/>
				</g>
			</g>
			<g>
				<g>
					<path d="M150.3,310.7h-27.9c-0.6,0-1,0.5-1,1c0,1.6,0.3,3.3,0.8,4.8c1,3,2.9,5.5,5.4,7.3c2.6,1.9,5.6,2.8,8.8,2.8
						c3.2,0,6.2-1,8.8-2.8c2.5-1.8,4.4-4.4,5.4-7.3v0c0.5-1.5,0.8-3.2,0.8-4.8C151.3,311.1,150.8,310.7,150.3,310.7z M136.3,324.6
						c-2.4,0-4.7-0.6-6.7-1.9c0.9-0.9,2.1-1.5,3.4-1.5c1,0,1.9,0.3,2.7,0.9c0.4,0.3,0.9,0.3,1.2,0c0.8-0.6,1.7-0.9,2.7-0.9
						c1.3,0,2.5,0.5,3.4,1.5C141,324,138.7,324.6,136.3,324.6z M144.7,321.5c-1.2-1.4-3.1-2.3-5-2.3c-1.2,0-2.3,0.3-3.3,0.9
						c-1-0.6-2.2-0.9-3.3-0.9c-1.9,0-3.8,0.9-5,2.3c-1.4-1.2-2.5-2.7-3.3-4.3H148C147.2,318.9,146.1,320.3,144.7,321.5z
						 M148.8,315.1h-24.9c-0.2-0.8-0.4-1.6-0.4-2.4h25.8C149.1,313.5,149,314.3,148.8,315.1z"/>
				</g>
			</g>
		</g>
		<g>
			<g>
				<g>
					<path d="M301.6,280.1c-15.8,0-28.7,12.9-28.7,28.7c0,15.8,12.9,28.7,28.7,28.7c15.8,0,28.7-12.9,28.7-28.7
						C330.3,293,317.4,280.1,301.6,280.1z M301.6,335.5c-14.7,0-26.6-12-26.6-26.6c0-14.7,12-26.6,26.6-26.6
						c14.7,0,26.6,12,26.6,26.6C328.2,323.5,316.3,335.5,301.6,335.5z"/>
				</g>
			</g>
			<g>
				<g>
					<path d="M289.3,299.3c-2.1,0-3.8,1.7-3.8,3.8c0,2.1,1.7,3.8,3.8,3.8c2.1,0,3.8-1.7,3.8-3.8C293.1,301,291.4,299.3,289.3,299.3z
						"/>
				</g>
			</g>
			<g>
				<g>
					<path d="M313.8,299.3c-2.1,0-3.8,1.7-3.8,3.8s1.7,3.8,3.8,3.8s3.8-1.7,3.8-3.8S315.9,299.3,313.8,299.3z"/>
				</g>
			</g>
			<g>
				<g>
					<path d="M315.1,309.8h-27.9c-0.6,0-1,0.5-1,1c0,1.6,0.3,3.3,0.8,4.8c1,3,2.9,5.5,5.4,7.3c2.6,1.9,5.6,2.8,8.8,2.8
						s6.2-1,8.8-2.8c2.5-1.8,4.4-4.4,5.4-7.3c0.5-1.5,0.8-3.2,0.8-4.8C316.1,310.2,315.7,309.8,315.1,309.8z M301.2,323.7
						c-2.4,0-4.7-0.6-6.7-1.9c0.9-0.9,2.1-1.5,3.4-1.5c1,0,1.9,0.3,2.7,0.9c0.4,0.3,0.9,0.3,1.2,0c0.8-0.6,1.7-0.9,2.7-0.9
						c1.3,0,2.5,0.5,3.4,1.5C305.9,323.1,303.6,323.7,301.2,323.7z M309.5,320.6c-1.2-1.4-3.1-2.3-5-2.3c-1.2,0-2.3,0.3-3.3,0.9
						c-1-0.6-2.2-0.9-3.3-0.9c-1.9,0-3.8,0.9-5,2.3c-1.4-1.2-2.5-2.7-3.3-4.3h23.4C312.1,318,311,319.4,309.5,320.6z M313.6,314.3
						h-24.9c-0.2-0.8-0.4-1.6-0.4-2.4H314C314,312.6,313.8,313.5,313.6,314.3z"/>
				</g>
			</g>
			<g>
				<g>
					<g>
						<circle cx="289.8" cy="302.6" r="1"/>
						<circle cx="314.2" cy="302.6" r="1"/>
					</g>
				</g>
			</g>
		</g>
	</g>
</g>
</svg>
